<svg width="17" height="17" viewBox="0 0 17 17" fill="none" xmlns="http://www.w3.org/2000/svg">
<path d="M8.49555 1.9624C4.91117 1.9624 1.99554 4.87803 1.99554 8.4624C1.99554 12.0468 4.91117 14.9624 8.49555 14.9624C12.0799 14.9624 14.9955 12.0468 14.9955 8.4624C14.9955 4.87803 12.0799 1.9624 8.49555 1.9624ZM12.794 4.95928C13.5674 5.90459 14.0362 7.10772 14.0471 8.41865C13.8643 8.37959 12.0284 8.00771 10.1815 8.24053C10.1424 8.14521 10.1034 8.0499 10.0627 7.95459C9.94711 7.68428 9.82367 7.41396 9.69398 7.1499C11.7455 6.31084 12.6768 5.11865 12.794 4.95928ZM8.49555 2.91865C9.90648 2.91865 11.1955 3.44834 12.1752 4.31709C12.0752 4.45928 11.2393 5.58271 9.26586 6.32334C8.35648 4.65146 7.34867 3.27959 7.19398 3.07334C7.62055 2.97021 8.05648 2.91865 8.49555 2.91865V2.91865ZM6.13461 3.44678C6.28148 3.64678 7.27367 5.02334 8.19242 6.65771C5.59555 7.34678 3.30804 7.3374 3.05961 7.33428C3.42054 5.61084 4.58148 4.17959 6.13461 3.44678ZM2.94398 8.47021C2.94398 8.41396 2.94554 8.35615 2.94711 8.2999C3.18929 8.30459 5.87992 8.33896 8.65336 7.50928C8.81273 7.82021 8.9643 8.13584 9.10336 8.45146C9.02992 8.47178 8.95648 8.49365 8.88461 8.51709C6.02055 9.44521 4.49711 11.9687 4.37054 12.1827C3.48461 11.1983 2.94398 9.89678 2.94398 8.47021ZM8.49555 14.0218C7.21117 14.0218 6.02836 13.5843 5.08773 12.8499C5.18773 12.6452 6.31117 10.4749 9.44242 9.38272L9.47836 9.37021C10.258 11.3952 10.5799 13.0937 10.6627 13.5812C9.97782 13.8739 9.24039 14.0238 8.49555 14.0218V14.0218ZM11.5971 13.0733C11.5409 12.7358 11.2455 11.1108 10.519 9.11553C12.2596 8.8374 13.7877 9.29365 13.9768 9.35303C13.7299 10.8968 12.844 12.2312 11.5971 13.0733V13.0733Z" fill="#333333"/>
</svg>
