<svg width="17" height="17" viewBox="0 0 17 17" fill="none" xmlns="http://www.w3.org/2000/svg">
<path d="M8.28676 5.25789C6.51332 5.25789 5.08207 6.68914 5.08207 8.46257C5.08207 10.236 6.51332 11.6673 8.28676 11.6673C10.0602 11.6673 11.4915 10.236 11.4915 8.46257C11.4915 6.68914 10.0602 5.25789 8.28676 5.25789ZM8.28676 10.5454C7.13988 10.5454 6.20395 9.60945 6.20395 8.46257C6.20395 7.3157 7.13988 6.37976 8.28676 6.37976C9.43364 6.37976 10.3696 7.3157 10.3696 8.46257C10.3696 9.60945 9.43364 10.5454 8.28676 10.5454ZM11.6227 4.37976C11.2086 4.37976 10.8743 4.71414 10.8743 5.1282C10.8743 5.54226 11.2086 5.87664 11.6227 5.87664C12.0368 5.87664 12.3711 5.54382 12.3711 5.1282C12.3713 5.02988 12.352 4.9325 12.3144 4.84164C12.2768 4.75078 12.2217 4.66822 12.1522 4.5987C12.0827 4.52917 12.0001 4.47405 11.9093 4.43648C11.8184 4.39891 11.721 4.37964 11.6227 4.37976ZM14.5336 8.46257C14.5336 7.60007 14.5415 6.74539 14.493 5.88445C14.4446 4.88445 14.2165 3.99695 13.4852 3.2657C12.7524 2.53289 11.8665 2.30632 10.8665 2.25789C10.0039 2.20945 9.14926 2.21726 8.28832 2.21726C7.42582 2.21726 6.57113 2.20945 5.7102 2.25789C4.7102 2.30632 3.8227 2.53445 3.09144 3.2657C2.35863 3.99851 2.13207 4.88445 2.08363 5.88445C2.03519 6.74695 2.04301 7.60163 2.04301 8.46257C2.04301 9.32351 2.03519 10.1798 2.08363 11.0407C2.13207 12.0407 2.36019 12.9282 3.09144 13.6594C3.82426 14.3923 4.7102 14.6188 5.7102 14.6673C6.5727 14.7157 7.42738 14.7079 8.28832 14.7079C9.15082 14.7079 10.0055 14.7157 10.8665 14.6673C11.8665 14.6188 12.754 14.3907 13.4852 13.6594C14.218 12.9266 14.4446 12.0407 14.493 11.0407C14.543 10.1798 14.5336 9.32507 14.5336 8.46257ZM13.1586 12.1469C13.0446 12.4313 12.9071 12.6438 12.6868 12.8626C12.4665 13.0829 12.2555 13.2204 11.9711 13.3344C11.1493 13.661 9.1977 13.5876 8.28676 13.5876C7.37582 13.5876 5.4227 13.661 4.60082 13.336C4.31645 13.2219 4.10395 13.0844 3.8852 12.8641C3.66488 12.6438 3.52738 12.4329 3.41332 12.1485C3.08832 11.3251 3.16176 9.37351 3.16176 8.46257C3.16176 7.55163 3.08832 5.59851 3.41332 4.77664C3.52738 4.49226 3.66488 4.27976 3.8852 4.06101C4.10551 3.84226 4.31645 3.7032 4.60082 3.58914C5.4227 3.26414 7.37582 3.33757 8.28676 3.33757C9.1977 3.33757 11.1508 3.26414 11.9727 3.58914C12.2571 3.7032 12.4696 3.8407 12.6883 4.06101C12.9086 4.28132 13.0461 4.49226 13.1602 4.77664C13.4852 5.59851 13.4118 7.55163 13.4118 8.46257C13.4118 9.37351 13.4852 11.3251 13.1586 12.1469Z" fill="#333333"/>
</svg>
