<svg width="17" height="17" viewBox="0 0 17 17" fill="none" xmlns="http://www.w3.org/2000/svg">
<path d="M4.0894 6.7672C4.0894 6.24854 4.18006 5.75854 4.35873 5.3012C4.52943 4.857 4.78305 4.44932 5.10606 4.09987C5.42842 3.75501 5.79731 3.4568 6.20206 3.21387C6.61734 2.96264 7.06693 2.7731 7.53673 2.6512C8.0122 2.52635 8.5018 2.46339 8.9934 2.46387C9.75273 2.46387 10.4594 2.62454 11.1147 2.94454C11.7615 3.2587 12.312 3.74083 12.7087 4.34054C13.1181 4.95054 13.3214 5.64054 13.3214 6.40987C13.3214 6.8712 13.2761 7.32254 13.1834 7.76387C13.0924 8.20496 12.9478 8.63325 12.7527 9.0392C12.5668 9.43217 12.3237 9.79545 12.0314 10.1172C11.7376 10.4338 11.3818 10.6866 10.9861 10.8599C10.5565 11.0481 10.0917 11.1429 9.62273 11.1379C9.29673 11.1379 8.9714 11.0612 8.65006 10.9072C8.32873 10.7539 8.09806 10.5432 7.9594 10.2732C7.91073 10.4605 7.84406 10.7312 7.7554 11.0852C7.67006 11.4385 7.61273 11.6665 7.5874 11.7699C7.56073 11.8725 7.5114 12.0439 7.4394 12.2812C7.39057 12.4568 7.32793 12.6282 7.25206 12.7939L7.02273 13.2432C6.92355 13.436 6.81268 13.6226 6.69073 13.8019C6.57006 13.9765 6.42073 14.1852 6.24273 14.4252L6.1434 14.4605L6.0774 14.3885C6.00606 13.6332 5.9694 13.1812 5.9694 13.0319C5.9694 12.5899 6.02206 12.0939 6.12606 11.5432C6.22806 10.9932 6.3894 10.3019 6.60606 9.47054C6.82273 8.63987 6.94673 8.1512 6.98006 8.00654C6.8274 7.6952 6.75006 7.28854 6.75006 6.78854C6.75006 6.3892 6.87473 6.0152 7.12473 5.6632C7.3754 5.31254 7.69206 5.1372 8.07606 5.1372C8.37006 5.1372 8.59806 5.23454 8.7614 5.42987C8.9254 5.62454 9.0054 5.86987 9.0054 6.1692C9.0054 6.48654 8.90006 6.94587 8.68806 7.54654C8.47606 8.14787 8.37073 8.59654 8.37073 8.89454C8.37073 9.19654 8.47873 9.4492 8.69473 9.6472C8.90789 9.8453 9.18979 9.95266 9.48073 9.94654C9.74473 9.94654 9.9894 9.88654 10.2167 9.76587C10.4405 9.64874 10.6342 9.4815 10.7827 9.2772C11.1062 8.8334 11.3368 8.32889 11.4607 7.79387C11.5247 7.51254 11.5741 7.2452 11.6047 6.99387C11.6374 6.7412 11.6514 6.50254 11.6514 6.27587C11.6514 5.44454 11.3874 4.79654 10.8627 4.33254C10.3354 3.86854 9.64873 3.63787 8.80406 3.63787C7.8434 3.63787 7.04006 3.94854 6.39673 4.57187C5.75273 5.1932 5.42873 5.9832 5.42873 6.9412C5.42873 7.15254 5.46073 7.35654 5.5214 7.55387C5.58073 7.75054 5.6454 7.9072 5.7154 8.0232C5.78473 8.1372 5.85006 8.24854 5.9094 8.3512C5.9694 8.45387 6.00073 8.5272 6.00073 8.5712C6.00073 8.70587 5.9654 8.8812 5.89406 9.09787C5.82006 9.31454 5.73273 9.42254 5.6274 9.42254C5.6174 9.42254 5.57606 9.4152 5.50406 9.39987C5.25471 9.32543 5.02952 9.18626 4.8514 8.99654C4.66236 8.79991 4.51317 8.56854 4.41206 8.3152C4.31125 8.06277 4.23273 7.802 4.1774 7.53587C4.11762 7.28406 4.08808 7.02601 4.0894 6.7672Z" fill="#333333"/>
</svg>
