<svg width="14" height="15" viewBox="0 0 16 17" fill="none" xmlns="http://www.w3.org/2000/svg">
<path d="M15.762 4.17257C15.2054 4.41924 14.6074 4.5859 13.9787 4.66124C14.6274 4.2731 15.1127 3.66221 15.344 2.94257C14.7346 3.30456 14.0676 3.55937 13.372 3.6959C12.9043 3.19648 12.2847 2.86545 11.6096 2.75422C10.9344 2.64298 10.2414 2.75776 9.63819 3.08074C9.03495 3.40371 8.55521 3.91681 8.27347 4.54037C7.99172 5.16393 7.92372 5.86307 8.08003 6.52924C6.84515 6.46723 5.63711 6.14627 4.53431 5.58717C3.43151 5.02808 2.45859 4.24334 1.67869 3.2839C1.41203 3.7439 1.25869 4.27724 1.25869 4.84524C1.2584 5.35657 1.38432 5.86006 1.62528 6.31106C1.86624 6.76205 2.2148 7.14659 2.64003 7.43057C2.14688 7.41488 1.66461 7.28163 1.23336 7.0419V7.0819C1.23331 7.79906 1.48138 8.49415 1.93548 9.04923C2.38958 9.60431 3.02174 9.98519 3.7247 10.1272C3.26722 10.251 2.78759 10.2693 2.32203 10.1806C2.52036 10.7976 2.90669 11.3373 3.42694 11.7239C3.94719 12.1105 4.57531 12.3247 5.22336 12.3366C4.12325 13.2002 2.76462 13.6686 1.36603 13.6666C1.11828 13.6666 0.870746 13.6522 0.624695 13.6232C2.04435 14.536 3.69692 15.0204 5.3847 15.0186C11.098 15.0186 14.2214 10.2866 14.2214 6.18257C14.2214 6.04924 14.218 5.91457 14.212 5.78124C14.8196 5.34189 15.344 4.79783 15.7607 4.17457L15.762 4.17257Z" fill="#333333"/>
</svg>
